# xmcd
#
# Track frame offsets:
# 150
# 11767
# 21681
# 36724
# 48507
# 64918
# 68113
# 75532
# 77007
# 97179
# 103574
# 107111
# 118493
# 121660
# 126764
# 145046
# 156426
# 169112
# 178481
# 193589
# 203948
# 208327
# 212802
#
# Disc length: 2981 seconds
#
# Revision: 0
# Processed by: cddbd v1.5.2PL0 Copyright (c) Steve Scherf et al.
# Submitted via: Audion 3.0.2 (http://www.panic.com/audion/)
#
DISCID=680ba317
DTITLE=Mix - Comedy Mix
DYEAR=1900
DGENRE=
TTITLE0=Audio Track 1
TTITLE1=Audio Track 2
TTITLE2=Audio Track 3
TTITLE3=Audio Track 4
TTITLE4=Audio Track 5
TTITLE5=Audio Track 6
TTITLE6=Audio Track 7
TTITLE7=Audio Track 8
TTITLE8=Audio Track 9
TTITLE9=Audio Track 10
TTITLE10=Audio Track 11
TTITLE11=Audio Track 12
TTITLE12=Audio Track 13
TTITLE13=Audio Track 14
TTITLE14=Audio Track 15
TTITLE15=Audio Track 16
TTITLE16=Audio Track 17
TTITLE17=Audio Track 18
TTITLE18=Audio Track 19
TTITLE19=Audio Track 20
TTITLE20=Audio Track 21
TTITLE21=Audio Track 22
TTITLE22=Audio Track 23
EXTD=
EXTT0=
EXTT1=
EXTT2=
EXTT3=
EXTT4=
EXTT5=
EXTT6=
EXTT7=
EXTT8=
EXTT9=
EXTT10=
EXTT11=
EXTT12=
EXTT13=
EXTT14=
EXTT15=
EXTT16=
EXTT17=
EXTT18=
EXTT19=
EXTT20=
EXTT21=
EXTT22=
PLAYORDER=
